<?xml version="1.0" encoding="UTF-8" standalone="no"?>
<!DOCTYPE svg PUBLIC "-//W3C//DTD SVG 1.1//EN" "http://www.w3.org/Graphics/SVG/1.1/DTD/svg11.dtd">
<svg width="100%" height="100%" viewBox="0 0 150 50" version="1.1" xmlns="http://www.w3.org/2000/svg" xmlns:xlink="http://www.w3.org/1999/xlink" xml:space="preserve" xmlns:serif="http://www.serif.com/" style="fill-rule:evenodd;clip-rule:evenodd;stroke-linejoin:round;stroke-miterlimit:2;">
    <g transform="matrix(1,0,0,1,-1.74826,-9.61198)">
        <g transform="matrix(0.911777,0,0,0.911777,7.77765,-33.7179)">
            <g transform="matrix(0.745101,-0.745101,0.745101,0.745101,-54.6967,27.1094)">
                <path d="M12.578,68.974L12.578,83.154C8.662,83.154 5.488,79.979 5.488,76.064C5.488,72.148 8.662,68.974 12.578,68.974Z"/>
            </g>
            <g transform="matrix(-0.790834,0.790834,-0.740292,-0.740292,77.223,120.593)">
                <path d="M12.451,69.905L12.451,81.63C9.213,81.63 6.588,79.005 6.588,75.768C6.588,72.53 9.213,69.905 12.451,69.905Z" style="fill:rgb(242,203,70);"/>
            </g>
        </g>
        <g transform="matrix(1.23241,0,0,1.23241,-3.63638,-50.9443)">
            <g transform="matrix(12,0,0,12,118.968,73.6772)">
            </g>
            <text x="24.54px" y="73.677px" style="font-family:'EthnocentricRg-Regular', 'Ethnocentric';font-size:12px;fill:rgb(105,106,108);">TERRAB<tspan x="94.464px 107.136px " y="73.677px 73.677px ">AU</tspan></text>
        </g>
    </g>
</svg>
